{"accessors" : [{"bufferView" : 0, "byteOffset" : 0, "componentType" : 5123, "count" : 2340, "type" : "SCALAR", "max" : [2339], "min" : [0]}, {"bufferView" : 1, "byteOffset" : 0, "componentType" : 5126, "count" : 2340, "type" : "VEC3", "max" : [-0.00579833984375, 103.37588500976562, 28.684452056884766], "min" : [-375.014404296875, 0.022173941135406494, -28.684452056884766], "name" : "POSITION"}, {"bufferView" : 1, "byteOffset" : 12, "componentType" : 5126, "count" : 2340, "type" : "VEC3", "max" : [1.0000044107437134, 0.9995352625846863, 1.0000044107437134], "min" : [-1.0000044107437134, -1.0000044107437134, -1.0000044107437134], "name" : "NORMAL"}, {"bufferView" : 1, "byteOffset" : 24, "componentType" : 5126, "count" : 2340, "type" : "VEC2", "max" : [0.9844366908073425, 0.9743631482124329], "min" : [0.013081550598144531, 0.01791006326675415], "name" : "TEXCOORD_0"}], "asset" : {"generator" : "Aspose.3D 24.9.1", "version" : "2.0"}, "buffers" : [{"uri" : "data:application/octet-stream;base64,", "byteLength" : 79568}], "bufferViews" : [{"buffer" : 0, "byteOffset" : 0, "byteLength" : 4680, "target" : 34963}, {"buffer" : 0, "byteOffset" : 4684, "byteLength" : 74880, "byteStride" : 32, "target" : 34962}], "materials" : [{"name" : "lambert1", "pbrMetallicRoughness" : {"baseColorFactor" : [0.5, 0.5, 0.5, 1], "metallicFactor" : 1, "roughnessFactor" : 1}, "emissiveFactor" : [0, 0, 0], "alphaMode" : "OPAQUE", "doubleSided" : false}], "meshes" : [{"primitives" : [{"attributes" : {"POSITION" : 1, "NORMAL" : 2, "TEXCOORD_0" : 3}, "indices" : 0, "material" : 0, "mode" : 4}], "name" : ""}], "nodes" : [{"mesh" : 0, "name" : "Concrete"}, {"children" : [0], "name" : "MGS_Barrier4"}], "scene" : 0, "scenes" : [{"nodes" : [1]}]}