{
    "asset": {
        "copyright": "(C)2025 info",
        "generator": "maya2glTF v1.5.2 fc60fee",
        "version": "2.0"
    },
    "scenes": [
        {
            "nodes": [
                0
            ]
        }
    ],
    "scene": 0,
    "nodes": [
        {
            "name": "SandBags_02",
            "children": [
                1
            ]
        },
        {
            "name": "SandBags_02:PIV",
            "mesh": 0,
            "translation": [
                0.0,
                0.21089138090610505,
                -13.545332908630373
            ]
        }
    ],
    "meshes": [
        {
            "name": "SandBags_Shape2",
            "extras": {
                "targetNames": []
            },
            "primitives": [
                {
                    "attributes": {
                        "NORMAL": 1,
                        "POSITION": 2,
                        "TANGENT": 3,
                        "TEXCOORD_0": 4
                    },
                    "indices": 0,
                    "mode": 4,
                    "material": 0
                }
            ]
        }
    ],
    "materials": [
        {
            "name": "M_Trimsheet_Basecolors",
            "pbrMetallicRoughness": {
                "baseColorFactor": [
                    0.800000011920929,
                    0.800000011920929,
                    0.800000011920929,
                    1.0
                ],
                "baseColorTexture": {
                    "index": 0
                },
                "metallicFactor": 0.0,
                "roughnessFactor": 1.0
            }
        }
    ],
    "textures": [
        {
            "sampler": 0,
            "source": 0
        }
    ],
    "images": [
        {
            "uri": "Trimsheet_BaseColors.png"
        }
    ],
    "samplers": [
        {
            "magFilter": 9728,
            "minFilter": 9728,
            "wrapS": 10497,
            "wrapT": 10497
        }
    ],
    "accessors": [
        {
            "name": "SandBags_Shape2#0/indices",
            "bufferView": 0,
            "byteOffset": 0,
            "componentType": 5123,
            "count": 5508,
            "max": [
                1102
            ],
            "min": [
                0
            ],
            "type": "SCALAR"
        },
        {
            "name": "SandBags_Shape2#0/vertices/NORMAL",
            "bufferView": 1,
            "byteOffset": 0,
            "componentType": 5126,
            "count": 1103,
            "max": [
                0.9998211860656738,
                0.9999993443489076,
                0.9998915195465088
            ],
            "min": [
                -0.99994957447052,
                -0.9999993443489076,
                -0.9998750686645508
            ],
            "type": "VEC3"
        },
        {
            "name": "SandBags_Shape2#0/vertices/POSITION",
            "bufferView": 1,
            "byteOffset": 13236,
            "componentType": 5126,
            "count": 1103,
            "max": [
                0.43650761246681216,
                0.5133808255195618,
                14.58456802368164
            ],
            "min": [
                -0.6861612200737,
                -0.25288861989974978,
                12.542240142822266
            ],
            "type": "VEC3"
        },
        {
            "name": "SandBags_Shape2#0/vertices/TANGENT",
            "bufferView": 2,
            "byteOffset": 0,
            "componentType": 5126,
            "count": 1103,
            "max": [
                0.9999993443489076,
                0.3199732005596161,
                0.5462154150009155,
                1.0
            ],
            "min": [
                -0.9999929070472716,
                -0.49520325660705569,
                -0.9999997615814208,
                -1.0
            ],
            "type": "VEC4"
        },
        {
            "name": "SandBags_Shape2#0/vertices/TEXCOORD_0",
            "bufferView": 3,
            "byteOffset": 0,
            "componentType": 5126,
            "count": 1103,
            "max": [
                0.10661911964416504,
                0.9985122084617616
            ],
            "min": [
                0.011944189667701722,
                0.7835596799850464
            ],
            "type": "VEC2"
        }
    ],
    "bufferViews": [
        {
            "name": "Mesh_SandBags_02/data/indices-2",
            "buffer": 0,
            "byteOffset": 52944,
            "byteLength": 11016,
            "target": 34963
        },
        {
            "name": "Mesh_SandBags_02/data/vertices-12",
            "buffer": 0,
            "byteOffset": 17648,
            "byteLength": 26472,
            "byteStride": 12,
            "target": 34962
        },
        {
            "name": "Mesh_SandBags_02/data/vertices-16",
            "buffer": 0,
            "byteOffset": 0,
            "byteLength": 17648,
            "byteStride": 16,
            "target": 34962
        },
        {
            "name": "Mesh_SandBags_02/data/vertices-8",
            "buffer": 0,
            "byteOffset": 44120,
            "byteLength": 8824,
            "byteStride": 8,
            "target": 34962
        }
    ],
    "buffers": [
        {
            "name": "Mesh_SandBags_02/data",
            "byteLength": 63960,
            "uri": "Mesh_SandBags_020.bin"
        }
    ]
}
