{"accessors" : [{"bufferView" : 0, "byteOffset" : 0, "componentType" : 5123, "count" : 1398, "type" : "SCALAR", "max" : [544], "min" : [0]}, {"bufferView" : 1, "byteOffset" : 0, "componentType" : 5126, "count" : 545, "type" : "VEC3", "max" : [0.010181295685470104, 0.009905001148581505, 0.018397338688373566], "min" : [-0.010181295685470104, -0.009370029903948307, 0.00363594526425004], "name" : "POSITION"}, {"bufferView" : 1, "byteOffset" : 12, "componentType" : 5126, "count" : 545, "type" : "VEC3", "max" : [1.0000044107437134, 0.9914491772651672, 1.0000044107437134], "min" : [-1.0000044107437134, -1.0000044107437134, -1.0000044107437134], "name" : "NORMAL"}, {"bufferView" : 0, "byteOffset" : 2796, "componentType" : 5123, "count" : 1746, "type" : "SCALAR", "max" : [734], "min" : [0]}, {"bufferView" : 2, "byteOffset" : 0, "componentType" : 5126, "count" : 735, "type" : "VEC3", "max" : [0.01056390069425106, 0.010139568708837032, 0.019099049270153046], "min" : [-0.01056390069425106, -0.012149705551564693, 0.0045747458934783936], "name" : "POSITION"}, {"bufferView" : 2, "byteOffset" : 12, "componentType" : 5126, "count" : 735, "type" : "VEC3", "max" : [1.0000044107437134, 1.0000044107437134, 1.0000044107437134], "min" : [-1.0000044107437134, -1.0000044107437134, -1.0000044107437134], "name" : "NORMAL"}, {"bufferView" : 0, "byteOffset" : 6288, "componentType" : 5123, "count" : 3384, "type" : "SCALAR", "max" : [1151], "min" : [0]}, {"bufferView" : 3, "byteOffset" : 0, "componentType" : 5126, "count" : 1152, "type" : "VEC3", "max" : [0.01043291762471199, 0.007355009205639362, 0.005431704223155975], "min" : [-0.01043291762471199, -0.005611899774521589, 0.0008687898516654968], "name" : "POSITION"}, {"bufferView" : 3, "byteOffset" : 12, "componentType" : 5126, "count" : 1152, "type" : "VEC3", "max" : [1.0000044107437134, 1.0000044107437134, 1.0000044107437134], "min" : [-1.0000044107437134, -1.0000044107437134, -1.0000044107437134], "name" : "NORMAL"}, {"bufferView" : 0, "byteOffset" : 13056, "componentType" : 5123, "count" : 1872, "type" : "SCALAR", "max" : [1247], "min" : [0]}, {"bufferView" : 4, "byteOffset" : 0, "componentType" : 5126, "count" : 1248, "type" : "VEC3", "max" : [0.010049190372228622, 0.008333686739206314, 0.006369352340698242], "min" : [-0.010049190372228622, -0.006517789792269468, 1.031816009344766E-05], "name" : "POSITION"}, {"bufferView" : 4, "byteOffset" : 12, "componentType" : 5126, "count" : 1248, "type" : "VEC3", "max" : [1.0000044107437134, 1.0000044107437134, 1.0000044107437134], "min" : [-1.0000044107437134, -1.0000044107437134, -1.0000044107437134], "name" : "NORMAL"}], "asset" : {"generator" : "Aspose.3D 24.9.1", "version" : "2.0"}, "buffers" : [{"uri" : "data:application/octet-stream;base64,", "byteLength" : 105140}], "bufferViews" : [{"buffer" : 0, "byteOffset" : 0, "byteLength" : 16800, "target" : 34963}, {"buffer" : 0, "byteOffset" : 16804, "byteLength" : 13080, "byteStride" : 24, "target" : 34962}, {"buffer" : 0, "byteOffset" : 29888, "byteLength" : 17640, "byteStride" : 24, "target" : 34962}, {"buffer" : 0, "byteOffset" : 47532, "byteLength" : 27648, "byteStride" : 24, "target" : 34962}, {"buffer" : 0, "byteOffset" : 75184, "byteLength" : 29952, "byteStride" : 24, "target" : 34962}], "materials" : [{"name" : "Tank_Main", "pbrMetallicRoughness" : {"baseColorFactor" : [0.381587475538254, 0.245281532406807, 0.00739863747730851, 1], "metallicFactor" : 0.400000005960464, "roughnessFactor" : 0.415087103843689}, "emissiveFactor" : [0, 0, 0], "alphaMode" : "OPAQUE", "doubleSided" : false}, {"name" : "Tank_Main2", "pbrMetallicRoughness" : {"baseColorFactor" : [0.45637184381485, 0.261588633060455, 0.0066861710511148, 1], "metallicFactor" : 0.400000005960464, "roughnessFactor" : 0.415087103843689}, "emissiveFactor" : [0, 0, 0], "alphaMode" : "OPAQUE", "doubleSided" : false}, {"name" : "Grey", "pbrMetallicRoughness" : {"baseColorFactor" : [0.219741851091385, 0.229952678084373, 0.281226128339767, 1], "metallicFactor" : 0.400000005960464, "roughnessFactor" : 0.415087103843689}, "emissiveFactor" : [0, 0, 0], "alphaMode" : "OPAQUE", "doubleSided" : false}, {"name" : "Black.001", "pbrMetallicRoughness" : {"baseColorFactor" : [0.0336207412183285, 0.0336207412183285, 0.0336207412183285, 1], "metallicFactor" : 0.400000005960464, "roughnessFactor" : 0.415087103843689}, "emissiveFactor" : [0, 0, 0], "alphaMode" : "OPAQUE", "doubleSided" : false}], "meshes" : [{"primitives" : [{"attributes" : {"POSITION" : 1, "NORMAL" : 2}, "indices" : 0, "material" : 0, "mode" : 4}, {"attributes" : {"POSITION" : 4, "NORMAL" : 5}, "indices" : 3, "material" : 1, "mode" : 4}, {"attributes" : {"POSITION" : 7, "NORMAL" : 8}, "indices" : 6, "material" : 2, "mode" : 4}, {"attributes" : {"POSITION" : 10, "NORMAL" : 11}, "indices" : 9, "material" : 3, "mode" : 4}]}], "nodes" : [{"matrix" : [112.290832519531, 0, 0, 0, 0, -1.5087267776277802E-05, -112.29082867597876, 0, 0, 112.29082867597876, -1.5087267776277802E-05, 0, 0, 0, 0, 1], "mesh" : 0, "name" : "Tank"}, {"children" : [0], "name" : "RootNode"}], "scene" : 0, "scenes" : [{"nodes" : [1]}]}